<?xml version="1.0" encoding="iso-8859-1"?>
<!-- Generator: Adobe Illustrator 19.0.0, SVG Export Plug-In . SVG Version: 6.00 Build 0)  -->
<svg version="1.1" id="Layer_1" xmlns="http://www.w3.org/2000/svg" xmlns:xlink="http://www.w3.org/1999/xlink" x="0px" y="0px"
	 viewBox="0 0 512 512" style="enable-background:new 0 0 512 512;" xml:space="preserve" >
<g transform="rotate(45 256 256)">
	<g>
		<g>
			<path d="M511.094,264.722c-1.136-3.307-28.511-81.137-89.171-95.166c-23.855-5.517-48.712-0.478-74.264,14.977v62.921
				c33.771,3.584,91.421,13.025,140.126,37.597c2.383,1.202,4.957,1.79,7.516,1.79c3.953,0,7.87-1.404,10.977-4.113
				C511.396,278.264,513.3,271.144,511.094,264.722z"/>
			<path d="M144.012,30.084C83.06,17.35,25.545,76.5,23.128,79.024c-4.699,4.903-5.959,12.164-3.188,18.365
				c2.771,6.2,9.02,10.103,15.811,9.873c55.339-1.884,112.503,14.251,144.4,25.19V47.257h-0.001
				C169.18,38.572,157.126,32.824,144.012,30.084z"/>
			<path d="M1.419,319.816c-2.739,6.214-1.443,13.469,3.281,18.349c3.208,3.314,7.561,5.083,11.999,5.083
				c2.096,0,4.212-0.395,6.233-1.209c51.663-20.806,111.29-25.11,144.9-25.692c-24.308-12.68-78.121-37.979-133.868-45.914
				C13.29,293.33,2.135,318.191,1.419,319.816z"/>
			<path d="M136.601,205.752c-8.572-2.976-17.327-4.231-25.986-4.231c-44.94,0-87.415,33.739-89.533,35.445
				c-1.771,1.427-2.492,3.756-1.838,5.936c0.654,2.178,2.541,3.724,4.805,3.938c65.199,6.168,129.604,36.853,156.101,50.83v-54.356
				C168.724,224.429,154.173,211.856,136.601,205.752z"/>
			<path d="M208.92,375.079c-2.31,0-4.51-0.47-6.51-1.318v117.115c0,5.763,2.919,10.844,7.361,13.844
				c0.888,0.6,1.838,1.116,2.836,1.539c1.998,0.845,4.194,1.312,6.499,1.312h89.595c1.729,0,3.396-0.263,4.965-0.75
				c2.091-0.65,4.006-1.701,5.655-3.062c3.711-3.062,6.076-7.697,6.076-12.883V373.928c-1.881,0.733-3.92,1.151-6.059,1.151H208.92z
				"/>
			<path d="M319.321,8.24c-1.65-1.361-3.564-2.412-5.655-3.062c-1.568-0.487-3.236-0.75-4.965-0.75h-89.595
				c-2.305,0-4.501,0.467-6.499,1.312c-0.998,0.423-1.948,0.939-2.836,1.539c-4.44,3.001-7.359,8.082-7.359,13.844v112.783
				c2-0.848,4.201-1.318,6.51-1.318h110.418c2.139,0,4.178,0.417,6.058,1.151V21.124C325.398,15.937,323.032,11.304,319.321,8.24z"
				/>
			<path d="M319.338,341.688c2.139,0,4.178,0.417,6.058,1.151V164.831c-1.88,0.733-3.919,1.151-6.058,1.151H208.92
				c-2.31,0-4.51-0.47-6.51-1.318v178.341c2-0.848,4.201-1.318,6.51-1.318H319.338z"/>
		</g>
	</g>
</g>
<g>
</g>
<g>
</g>
<g>
</g>
<g>
</g>
<g>
</g>
<g>
</g>
<g>
</g>
<g>
</g>
<g>
</g>
<g>
</g>
<g>
</g>
<g>
</g>
<g>
</g>
<g>
</g>
<g>
</g>
</svg>
